HIERARCHY
ROOT hip
{
  OFFSET 0 0 0
  CHANNELS 6 Xposition Yposition Zposition Zrotation Yrotation Xrotation
  JOINT abdomen
  {
    OFFSET 0 20.6881 -0.73152
    CHANNELS 3 Zrotation Xrotation Yrotation
    JOINT chest
    {
      OFFSET 0 11.7043 -0.48768
      CHANNELS 3 Zrotation Xrotation Yrotation
      JOINT neck
      {
        OFFSET 0 22.1894 -2.19456
        CHANNELS 3 Zrotation Xrotation Yrotation
        JOINT head
        {
          OFFSET -0.24384 7.07133 1.2192
          CHANNELS 3 Zrotation Xrotation Yrotation
          JOINT leftEye
          {
            OFFSET 4.14528 8.04674 8.04672
            CHANNELS 3 Zrotation Xrotation Yrotation
            End Site
            {
              OFFSET 1 0 0
            }
          }
          JOINT rightEye
          {
            OFFSET -3.6576 8.04674 8.04672
            CHANNELS 3 Zrotation Xrotation Yrotation
            End Site
            {
              OFFSET 1 0 0
            }
          }
        }
      }
      JOINT rCollar
      {
        OFFSET -2.68224 19.2634 -4.8768
        CHANNELS 3 Zrotation Xrotation Yrotation
        JOINT rShldr
        {
          OFFSET -8.77824 -1.95073 1.46304
          CHANNELS 3 Zrotation Xrotation Yrotation
          JOINT rForeArm
          {
            OFFSET -28.1742 -1.7115 0.48768
            CHANNELS 3 Zrotation Xrotation Yrotation
            JOINT rHand
            {
              OFFSET -22.5879 0.773209 7.07136
              CHANNELS 3 Zrotation Xrotation Yrotation
              JOINT rThumb1
              {
                OFFSET -1.2192 -0.487915 3.41376
                CHANNELS 3 Zrotation Xrotation Yrotation
                JOINT rThumb2
                {
                  OFFSET -3.37035 -0.52449 3.41376
                  CHANNELS 3 Zrotation Xrotation Yrotation
                  End Site
                  {
                    OFFSET -1.78271 -1.18214 1.43049
                  }
                }
              }
              JOINT rIndex1
              {
                OFFSET -7.75947 0.938293 5.60832
                CHANNELS 3 Zrotation Xrotation Yrotation
                JOINT rIndex2
                {
                  OFFSET -2.54057 -0.884171 1.56538
                  CHANNELS 3 Zrotation Xrotation Yrotation
                  End Site
                  {
                    OFFSET -1.62519 -0.234802 1.16502
                  }
                }
              }
              JOINT rMid1
              {
                OFFSET -8.24714 1.18213 3.41376
                CHANNELS 3 Zrotation Xrotation Yrotation
                JOINT rMid2
                {
                  OFFSET -3.10165 -0.590103 1.0647
                  CHANNELS 3 Zrotation Xrotation Yrotation
                  End Site
                  {
                    OFFSET -2.48547 -0.328903 0.83742
                  }
                }
              }
              JOINT rRing1
              {
                OFFSET -8.82822 0.546677 1.51678
                CHANNELS 3 Zrotation Xrotation Yrotation
                JOINT rRing2
                {
                  OFFSET -2.60934 -0.819778 -0.0198488
                  CHANNELS 3 Zrotation Xrotation Yrotation
                  End Site
                  {
                    OFFSET -2.33842 -0.294052 0.168128
                  }
                }
              }
              JOINT rPinky1
              {
                OFFSET -8.27202 -0.0477905 -0.4584
                CHANNELS 3 Zrotation Xrotation Yrotation
                JOINT rPinky2
                {
                  OFFSET -1.82734 -0.647385 -0.700984
                  CHANNELS 3 Zrotation Xrotation Yrotation
                  End Site
                  {
                    OFFSET -1.69225 -0.51767 -0.607171
                  }
                }
              }
            }
          }
        }
      }
      JOINT lCollar
      {
        OFFSET 2.68224 19.2634 -4.8768
        CHANNELS 3 Zrotation Xrotation Yrotation
        JOINT lShldr
        {
          OFFSET 8.77824 -1.95073 1.46304
          CHANNELS 3 Zrotation Xrotation Yrotation
          JOINT lForeArm
          {
            OFFSET 28.1742 -1.7115 0.48768
            CHANNELS 3 Zrotation Xrotation Yrotation
            JOINT lHand
            {
              OFFSET 22.5879 0.773209 7.07136
              CHANNELS 3 Zrotation Xrotation Yrotation
              JOINT lThumb1
              {
                OFFSET 1.2192 -0.487915 3.41376
                CHANNELS 3 Zrotation Xrotation Yrotation
                JOINT lThumb2
                {
                  OFFSET 3.37035 -0.52449 3.41376
                  CHANNELS 3 Zrotation Xrotation Yrotation
                  End Site
                  {
                    OFFSET 1.78271 -1.18214 1.43049
                  }
                }
              }
              JOINT lIndex1
              {
                OFFSET 7.75947 0.938293 5.60832
                CHANNELS 3 Zrotation Xrotation Yrotation
                JOINT lIndex2
                {
                  OFFSET 2.54057 -0.884171 1.56538
                  CHANNELS 3 Zrotation Xrotation Yrotation
                  End Site
                  {
                    OFFSET 1.62519 -0.234802 1.16502
                  }
                }
              }
              JOINT lMid1
              {
                OFFSET 8.24714 1.18213 3.41376
                CHANNELS 3 Zrotation Xrotation Yrotation
                JOINT lMid2
                {
                  OFFSET 3.10165 -0.590103 1.0647
                  CHANNELS 3 Zrotation Xrotation Yrotation
                  End Site
                  {
                    OFFSET 2.48547 -0.328903 0.83742
                  }
                }
              }
              JOINT lRing1
              {
                OFFSET 8.82822 0.546677 1.51678
                CHANNELS 3 Zrotation Xrotation Yrotation
                JOINT lRing2
                {
                  OFFSET 2.60934 -0.819778 -0.0198488
                  CHANNELS 3 Zrotation Xrotation Yrotation
                  End Site
                  {
                    OFFSET 2.33842 -0.294052 0.168128
                  }
                }
              }
              JOINT lPinky1
              {
                OFFSET 8.27202 -0.0477905 -0.4584
                CHANNELS 3 Zrotation Xrotation Yrotation
                JOINT lPinky2
                {
                  OFFSET 1.82734 -0.647385 -0.700984
                  CHANNELS 3 Zrotation Xrotation Yrotation
                  End Site
                  {
                    OFFSET 1.69225 -0.51767 -0.607171
                  }
                }
              }
            }
          }
        }
      }
    }
  }
  JOINT rButtock
  {
    OFFSET -8.77824 4.35084 1.2192
    CHANNELS 3 Zrotation Xrotation Yrotation
    JOINT rThigh
    {
      OFFSET 0 -1.70687 -2.19456
      CHANNELS 3 Zrotation Xrotation Yrotation
      JOINT rShin
      {
        OFFSET 0 -36.8199 0.73152
        CHANNELS 3 Zrotation Xrotation Yrotation
        JOINT rFoot
        {
          OFFSET 0.73152 -45.1104 -5.12064
          CHANNELS 3 Zrotation Xrotation Yrotation
          End Site
          {
            OFFSET -1.1221 -3.69964 12.103
          }
        }
      }
    }
  }
  JOINT lButtock
  {
    OFFSET 8.77824 4.35084 1.2192
    CHANNELS 3 Zrotation Xrotation Yrotation
    JOINT lThigh
    {
      OFFSET 0 -1.70687 -2.19456
      CHANNELS 3 Zrotation Xrotation Yrotation
      JOINT lShin
      {
        OFFSET 0 -36.8199 0.73152
        CHANNELS 3 Zrotation Xrotation Yrotation
        JOINT lFoot
        {
          OFFSET -0.73152 -45.1104 -5.12064
          CHANNELS 3 Zrotation Xrotation Yrotation
          End Site
          {
            OFFSET 1.1221 -3.69964 12.103
          }
        }
      }
    }
  }
}
MOTION
Frames:	4
Frame Time:	0.03333
0.21040000199870243 64.52319882484467 -0.7570000042745624 173.53997802734375 -29.52400779724121 178.96298217773438 -11.782100677490234 23.30080223083496 4.594210147857666 9.701231002807617 -8.827348709106445 1.1977500915527344 -9.493478775024414 21.252304077148438 -12.64699935913086 12.195099830627441 -19.226499557495117 -24.250699996948242 -0.0 0.0 -0.0 -0.0 0.0 -0.0 4.346710081578947e-15 -7.462659776160535e-14 6.173609800458335e-13 61.611297607421875 -4.259430408477783 28.200300216674805 -27.724599838256836 -29.167203903198242 65.92530059814453 -17.075698852539062 -70.83441162109375 -23.8445987701416 -3.631200062859108e-10 -1.6892197862716785e-08 1.674850036437192e-09 -7.160459447597134e-10 -2.946980082185746e-08 2.8523599038265957e-09 -3.6310895956681577e-10 -1.6892197862716785e-08 1.674850036437192e-09 7.730909824371338 5.474879741668701 0.4173140823841095 -3.6312097773105734e-10 -1.6892197862716785e-08 1.674850036437192e-09 2.9055399894714355 0.9651829600334167 0.10290199518203735 -3.6311600948302214e-10 -1.6892197862716785e-08 1.674850036437192e-09 10.27859878540039 0.73180091381073 0.025912316516041756 -3.63124974533946e-10 -1.6892197862716785e-08 1.6748600284444137e-09 2.221669912338257 -0.733487069606781 -0.208919957280159 4.0647099435484144e-15 -7.463760241365608e-14 6.169849787324155e-13 7.086889743804932 -50.527103424072266 -62.760498046875 28.427900314331055 -36.206398010253906 -77.3561019897461 3.8522496223449707 -47.284297943115234 8.764829635620117 1.048379938417554e-09 -1.5622398930048575e-09 2.219009864745658e-09 1.723709952550223e-09 -2.654609865260227e-09 3.851899688100957e-09 1.048379938417554e-09 -1.5622398930048575e-09 2.2190198567528796e-09 -7.730909824371338 5.474879741668701 -0.4173140823841095 1.048379938417554e-09 -1.5622398930048575e-09 2.219009864745658e-09 -2.9055399894714355 0.9651829600334167 -0.10290199518203735 1.0483699464103324e-09 -1.5622398930048575e-09 2.219009864745658e-09 -10.27859878540039 0.73180091381073 -0.025912316516041756 1.048379938417554e-09 -1.5622398930048575e-09 2.2190000947830413e-09 -2.221669912338257 -0.733487069606781 0.208919957280159 -2.0321699480147914e-16 0.0 -3.8825099822884138e-19 -57.102195739746094 -55.20040512084961 -44.597694396972656 -1.0180000066757202 58.291297912597656 1.2424700260162354 -3.345099925994873 12.437100410461426 21.099000930786133 2.0321699480147914e-16 0.0 3.8825099822884138e-19 11.958198547363281 1.0937000513076782 6.478629112243652 0.4759829640388489 56.70670700073242 -2.89143967628479 24.356199264526367 -21.232698440551758 39.59359359741211
0.3975999991612004 64.26889722166676 -1.3865000135388506 172.92098999023438 -30.837995529174805 -179.69700622558594 -11.176400184631348 22.29669952392578 3.1530702114105225 10.420500755310059 -8.997989654541016 0.9666138291358948 -9.701499938964844 21.131900787353516 -12.409500122070312 11.686399459838867 -20.055997848510742 -23.713699340820312 -0.0 0.0 -0.0 -0.0 0.0 -0.0 -1.5692198788216233e-13 7.369159536058101e-14 5.999009882601269e-13 63.519500732421875 -6.243188381195068 28.641599655151367 -27.737096786499023 -29.2251033782959 66.0156021118164 -20.620601654052734 -73.11660766601562 -27.571996688842773 1.5441799228188557e-10 -4.860770008718873e-09 8.511519822285152e-10 2.2048399217489134e-10 -8.76378969394409e-09 1.4678099846676673e-09 1.54427998166895e-10 -4.8607802227707e-09 8.5114498782346e-10 7.730909824371338 5.474879741668701 0.4173140823841095 1.5441599388044125e-10 -4.860800206785143e-09 8.511499838270709e-10 2.9055399894714355 0.9651829600334167 0.10290199518203735 1.544229882854964e-10 -4.860770008718873e-09 8.511469862249044e-10 10.27859878540039 0.73180091381073 0.025912316516041756 1.5441599388044125e-10 -4.860770008718873e-09 8.511589766335703e-10 2.221669912338257 -0.733487069606781 -0.208919957280159 -1.5718000089415957e-13 7.36804009731501e-14 5.99622944612993e-13 6.148530006408691 -49.42399978637695 -63.53629684448242 28.4281005859375 -36.19680404663086 -77.3396987915039 4.122250556945801 -48.47270965576172 9.134590148925781 1.1661599463863581e-09 -1.2873999644114065e-09 1.4306099638261571e-09 1.9538499707039136e-09 -2.1983899145539e-09 2.4987798497022595e-09 1.1661599463863581e-09 -1.2873999644114065e-09 1.4306199558333788e-09 -7.730909824371338 5.474879741668701 -0.4173140823841095 1.1661699383935797e-09 -1.2873999644114065e-09 1.4306099638261571e-09 -2.9055399894714355 0.9651829600334167 -0.10290199518203735 1.1661599463863581e-09 -1.2874100674409306e-09 1.4306099638261571e-09 -10.27859878540039 0.73180091381073 -0.025912316516041756 1.1661699383935797e-09 -1.2873999644114065e-09 1.430599860796633e-09 -2.221669912338257 -0.733487069606781 0.208919957280159 -2.0321699480147914e-16 0.0 -3.8825099822884138e-19 -59.92219924926758 -55.54730224609375 -47.08470153808594 -1.1545099020004272 60.358795166015625 1.3475000858306885 -2.6033997535705566 10.774801254272461 20.184600830078125 2.0321699480147914e-16 0.0 3.8825099822884138e-19 12.654597282409668 -0.11809702962636948 5.836430549621582 0.47955894470214844 56.52840805053711 -2.839940071105957 23.262798309326172 -20.63060188293457 38.728797912597656
0.3595000000166259 64.15680015700852 -1.9319000102744774 172.7220001220703 -31.71999168395996 -178.47000122070312 -10.781801223754883 21.446102142333984 2.187920093536377 10.615700721740723 -9.19321060180664 0.8022512197494507 -9.661100387573242 21.111902236938477 -12.441100120544434 10.887799263000488 -20.83919906616211 -23.766996383666992 -0.0 0.0 -0.0 -0.0 0.0 -0.0 -2.0448700783874674e-13 7.03092979345045e-14 6.584559828805292e-13 64.96839141845703 -7.5948591232299805 28.737600326538086 -27.766496658325195 -29.364501953125 66.23369598388672 -22.29269790649414 -73.98130798339844 -29.31409454345703 -6.293379706256985e-11 -3.502439671621005e-09 4.391949859350319e-10 -1.2666699633623324e-10 -6.227570015227002e-09 7.474799668116816e-10 -6.29242977168154e-11 -3.5024498856728314e-09 4.391819963256438e-10 7.730909824371338 5.474879741668701 0.4173140823841095 -6.293569831949952e-11 -3.5024698696872747e-09 4.391900176869967e-10 2.9055399894714355 0.9651829600334167 0.10290199518203735 -6.292759369141976e-11 -3.502439671621005e-09 4.3918796377440117e-10 10.27859878540039 0.73180091381073 0.025912316516041756 -6.293539300816775e-11 -3.5024498856728314e-09 4.392020080956627e-10 2.221669912338257 -0.733487069606781 -0.208919957280159 -2.0463600432230056e-13 7.030479849548868e-14 6.58205965859554e-13 5.8332200050354 -48.44389724731445 -63.79280090332031 28.429401397705078 -36.13949966430664 -77.24239349365234 4.143710136413574 -48.57859802246094 9.165979385375977 6.825779941266319e-10 -7.888489861329617e-10 9.574310233517735e-10 1.1380498765589664e-09 -1.337239874388274e-09 1.664199889006568e-09 6.825749965244654e-10 -7.888539266254213e-10 9.574450121618838e-10 -7.730909824371338 5.474879741668701 -0.4173140823841095 6.825809362176471e-10 -7.888559805380169e-10 9.574289139280268e-10 -2.9055399894714355 0.9651829600334167 -0.10290199518203735 6.825719434111477e-10 -7.888579789394612e-10 9.574310233517735e-10 -10.27859878540039 0.73180091381073 -0.025912316516041756 6.825809362176471e-10 -7.888559805380169e-10 9.574279147273046e-10 -2.221669912338257 -0.733487069606781 0.208919957280159 -2.0321699480147914e-16 0.0 -3.8825099822884138e-19 -62.52260208129883 -55.813602447509766 -49.29249954223633 -1.2708700895309448 61.99219512939453 1.4579801559448242 -2.135309934616089 9.652789115905762 19.601200103759766 2.0321699480147914e-16 0.0 3.8825099822884138e-19 12.87720012664795 -0.7456863522529602 5.758970260620117 0.4617788791656494 55.94440460205078 -2.792099714279175 22.4851016998291 -20.23329734802246 38.1431999206543
0.25640000204257596 64.16490076136415 -2.4497000129868765 171.83499145507812 -32.138004302978516 -177.3209991455078 -10.566300392150879 20.758899688720703 1.6860700845718384 10.287300109863281 -9.413090705871582 0.7047390341758728 -9.372369766235352 21.192302703857422 -12.741800308227539 9.773868560791016 -21.566301345825195 -24.418498992919922 -0.0 0.0 -0.0 -0.0 0.0 -0.0 -1.3834800546928122e-13 -8.47733951721448e-14 7.93024988125085e-13 65.92890167236328 -8.32883071899414 28.46099853515625 -27.810697555541992 -29.58269500732422 66.58209228515625 -21.327402114868164 -73.49169158935547 -28.308801651000977 -1.0151799401114658e-09 -1.2817199745995822e-08 4.389819896477576e-10 -1.7574999233715971e-09 -2.1861199073214266e-08 6.913809524888848e-10 -1.0151699481042442e-09 -1.2817199745995822e-08 4.389610341881678e-10 7.730909824371338 5.474879741668701 0.4173140823841095 -1.0151799401114658e-09 -1.2817199745995822e-08 4.38975966687849e-10 2.9055399894714355 0.9651829600334167 0.10290199518203735 -1.0151699481042442e-09 -1.2817199745995822e-08 4.3897696588857116e-10 10.27859878540039 0.73180091381073 0.025912316516041756 -1.0151799401114658e-09 -1.2817199745995822e-08 4.3899098245425705e-10 2.221669912338257 -0.733487069606781 -0.208919957280159 -1.3830299752659592e-13 -8.476459958202051e-14 7.927330124800347e-13 6.105000019073486 -47.58940124511719 -63.56808853149414 28.43120002746582 -36.034000396728516 -77.0647964477539 3.911210060119629 -47.60240173339844 8.854020118713379 -4.0237699283629524e-10 -6.659479911963473e-11 7.994659934063009e-10 -7.236710120039902e-10 -7.118160227914672e-11 1.3481599170361847e-09 -4.023839872413504e-10 -6.659329337965758e-11 7.994799822164111e-10 -7.730909824371338 5.474879741668701 -0.4173140823841095 -4.0237199683268443e-10 -6.659559709243368e-11 7.994769846142447e-10 -2.9055399894714355 0.9651829600334167 -0.10290199518203735 -4.023859856427947e-10 -6.659479911963473e-11 7.99472987811356e-10 -10.27859878540039 0.73180091381073 -0.025912316516041756 -4.023779920370174e-10 -6.659749834936335e-11 7.994709894099117e-10 -2.221669912338257 -0.733487069606781 0.208919957280159 -2.0321699480147914e-16 0.0 -3.8825099822884138e-19 -64.88370513916016 -56.02090072631836 -51.2073974609375 -1.3624199628829956 63.19160079956055 1.5691900253295898 -1.904129981994629 9.085311889648438 19.32979965209961 2.0321699480147914e-16 0.0 3.8825099822884138e-19 12.64680004119873 -0.7868430614471436 6.24422025680542 0.42420494556427 54.95470428466797 -2.7498397827148438 22.008899688720703 -20.053199768066406 37.828895568847656
